<svg xmlns="http://www.w3.org/2000/svg" viewBox="0 0 400 300" data-imageid="cpu-f" imageName="Data Process" class="illustrations_image" style="width: 261px;"><g id="_84_data_process" data-name="#84_data_process"><path d="M145.88,132a.46.46,0,0,1-.47-.46V77.46a18,18,0,0,1,18-18h13.29a.47.47,0,0,1,.46.46.46.46,0,0,1-.46.46H163.37a17.05,17.05,0,0,0-17,17v54.12A.46.46,0,0,1,145.88,132Z" fill="#d1d3d4"/><path d="M145.88,132.1a.46.46,0,0,1-.47-.46V117.31a27,27,0,0,0-26.94-26.94H101a.47.47,0,0,1-.46-.46.46.46,0,0,1,.46-.46h17.47a27.9,27.9,0,0,1,27.87,27.86v14.33A.46.46,0,0,1,145.88,132.1Z" fill="#d1d3d4"/><path d="M316.57,172H266a.46.46,0,0,1-.46-.46.45.45,0,0,1,.46-.46h50.56a.46.46,0,0,1,.46.46A.47.47,0,0,1,316.57,172Z" fill="#d1d3d4"/><path d="M273.33,102.32H185a.45.45,0,0,1-.46-.46V66.41A.45.45,0,0,1,185,66a.46.46,0,0,1,.46.46v35h87.9a.47.47,0,0,1,.46.46A.46.46,0,0,1,273.33,102.32Z" fill="#d1d3d4"/><path d="M361.25,232H38.75a.47.47,0,0,1-.46-.46.46.46,0,0,1,.46-.46h322.5a.46.46,0,0,1,.46.46A.47.47,0,0,1,361.25,232Z" fill="#d1d3d4"/><path d="M135,189.27H53.9a.46.46,0,0,1-.46-.46.45.45,0,0,1,.46-.46H135a.46.46,0,0,1,.46.46A.47.47,0,0,1,135,189.27Z" fill="#d1d3d4"/><rect x="42.81" y="159.67" width="51.19" height="47.88" fill="#231f20"/><path d="M94,208.07H42.81a.51.51,0,0,1-.51-.51V159.67a.51.51,0,0,1,.51-.51H94a.51.51,0,0,1,.51.51v47.89A.51.51,0,0,1,94,208.07Zm-50.68-1H93.49V160.19H43.33Z" fill="#231f20"/><rect x="38.75" y="198.21" width="59.32" height="16.81" rx="4.08" fill="#fff"/><path d="M94,215.54H42.83a4.6,4.6,0,0,1-4.59-4.6v-8.65a4.6,4.6,0,0,1,4.59-4.59H94a4.6,4.6,0,0,1,4.59,4.59v8.65A4.6,4.6,0,0,1,94,215.54ZM42.83,198.73a3.57,3.57,0,0,0-3.56,3.56v8.65a3.57,3.57,0,0,0,3.56,3.57H94a3.57,3.57,0,0,0,3.56-3.57v-8.65A3.57,3.57,0,0,0,94,198.73Z" fill="#231f20"/><rect x="38.75" y="177.73" width="59.32" height="16.81" rx="4.08" fill="#fff"/><path d="M94,195.06H42.83a4.6,4.6,0,0,1-4.59-4.6v-8.65a4.6,4.6,0,0,1,4.59-4.59H94a4.6,4.6,0,0,1,4.59,4.59v8.65A4.6,4.6,0,0,1,94,195.06ZM42.83,178.25a3.57,3.57,0,0,0-3.56,3.56v8.65A3.57,3.57,0,0,0,42.83,194H94a3.57,3.57,0,0,0,3.56-3.56v-8.65A3.57,3.57,0,0,0,94,178.25Z" fill="#231f20"/><rect x="38.75" y="157.25" width="59.32" height="16.81" rx="4.08" fill="#fff"/><path d="M94,174.57H42.83A4.6,4.6,0,0,1,38.24,170v-8.65a4.6,4.6,0,0,1,4.59-4.6H94a4.6,4.6,0,0,1,4.59,4.6V170A4.6,4.6,0,0,1,94,174.57Zm-51.16-16.8a3.56,3.56,0,0,0-3.56,3.56V170a3.57,3.57,0,0,0,3.56,3.56H94A3.57,3.57,0,0,0,97.55,170v-8.65A3.56,3.56,0,0,0,94,157.77Z" fill="#231f20"/><circle cx="46.11" cy="163.11" r="1.12" fill="#fff"/><path d="M46.11,164.73a1.62,1.62,0,1,1,1.62-1.62A1.62,1.62,0,0,1,46.11,164.73Zm0-2.24a.62.62,0,0,0-.62.62.62.62,0,0,0,.62.62.61.61,0,0,0,.62-.62A.62.62,0,0,0,46.11,162.49Z" fill="#d1d3d4"/><circle cx="50.85" cy="163.11" r="1.12" fill="#fff"/><path d="M50.85,164.73a1.62,1.62,0,1,1,1.62-1.62A1.62,1.62,0,0,1,50.85,164.73Zm0-2.24a.62.62,0,0,0-.62.62.62.62,0,0,0,.62.62.61.61,0,0,0,.62-.62A.62.62,0,0,0,50.85,162.49Z" fill="#d1d3d4"/><circle cx="55.59" cy="163.11" r="1.12" fill="#fff"/><path d="M55.59,164.73a1.62,1.62,0,1,1,1.62-1.62A1.62,1.62,0,0,1,55.59,164.73Zm0-2.24a.62.62,0,0,0-.62.62.62.62,0,0,0,1.24,0A.62.62,0,0,0,55.59,162.49Z" fill="#d1d3d4"/><polyline points="166.4 72.92 163.34 46.34 203.7 46.34 198.34 73.58 166.4 72.92" fill="#fff"/><path d="M198.34,74.1h0l-31.94-.66a.51.51,0,0,1-.5-.46L162.83,46.4A.5.5,0,0,1,163,46a.49.49,0,0,1,.38-.17H203.7a.53.53,0,0,1,.4.19.5.5,0,0,1,.11.42l-5.36,27.24A.52.52,0,0,1,198.34,74.1Zm-31.48-1.68,31.06.64,5.15-26.2H163.92Z" fill="#231f20"/><polygon points="166.4 72.92 166.4 41.09 204.14 41.09 204.14 73.58 166.4 72.92" fill="#231f20"/><path d="M204.14,74.1h0l-37.74-.66a.51.51,0,0,1-.5-.52V41.1a.51.51,0,0,1,.51-.52h37.74a.51.51,0,0,1,.51.52V73.58a.51.51,0,0,1-.15.37A.55.55,0,0,1,204.14,74.1Zm-37.22-1.68,36.7.64V41.61h-36.7Z" fill="#231f20"/><polygon points="166.4 72.92 171.32 48.64 192.32 48.64 193.97 44.38 210.37 44.38 203.97 73.58 166.4 72.92" fill="#fff"/><path d="M204,74.1h0l-37.57-.66a.51.51,0,0,1-.49-.62l4.92-24.28a.51.51,0,0,1,.5-.41H192l1.51-3.94a.52.52,0,0,1,.49-.33h16.4a.5.5,0,0,1,.4.19.53.53,0,0,1,.11.44l-6.4,29.2A.52.52,0,0,1,204,74.1ZM167,72.42l36.53.64,6.17-28.17H194.32l-1.51,3.94a.52.52,0,0,1-.48.33H171.75Z" fill="#231f20"/><path d="M129.16,128.56H270.84a10.6,10.6,0,0,1,10.6,10.6v86.53a0,0,0,0,1,0,0H118.55a0,0,0,0,1,0,0V139.16A10.6,10.6,0,0,1,129.16,128.56Z" fill="#2e8555" class="target-color"/><rect x="128.74" y="137.26" width="142.53" height="88.43" fill="#fff"/><path d="M101.62,225.69H298.38a0,0,0,0,1,0,0v0a11.77,11.77,0,0,1-11.77,11.77H113.39a11.77,11.77,0,0,1-11.77-11.77v0A0,0,0,0,1,101.62,225.69Z" fill="#2e8555" class="target-color"/><polygon points="162.07 150.15 152.19 155.13 162.07 160.11 171.94 155.13 162.07 150.15" fill="#fff"/><path d="M162.07,160.57a.46.46,0,0,1-.21,0l-9.88-5a.47.47,0,0,1-.25-.41.45.45,0,0,1,.25-.41l9.88-5a.49.49,0,0,1,.41,0l9.88,5a.45.45,0,0,1,.25.41.47.47,0,0,1-.25.41l-9.88,5A.46.46,0,0,1,162.07,160.57Zm-8.86-5.44,8.86,4.46,8.85-4.46-8.85-4.47Z" fill="#d1d3d4"/><polygon points="152.19 155.13 152.19 207.83 162.07 212.81 162.07 160.11 152.19 155.13" fill="#fff"/><path d="M162.07,213.27a.46.46,0,0,1-.21-.05l-9.88-5a.47.47,0,0,1-.25-.41v-52.7a.47.47,0,0,1,.22-.4.45.45,0,0,1,.45,0l9.87,5a.45.45,0,0,1,.26.41v52.7a.47.47,0,0,1-.22.39A.44.44,0,0,1,162.07,213.27Zm-9.42-5.73,8.95,4.52V160.39l-8.95-4.51Z" fill="#d1d3d4"/><polygon points="162.07 212.81 171.94 207.83 171.94 155.13 162.07 160.11 162.07 212.81" fill="#fff"/><path d="M162.07,213.27a.45.45,0,0,1-.25-.07.47.47,0,0,1-.22-.39v-52.7a.45.45,0,0,1,.26-.41l9.87-5a.45.45,0,0,1,.45,0,.47.47,0,0,1,.22.4v52.7a.47.47,0,0,1-.25.41l-9.88,5A.46.46,0,0,1,162.07,213.27Zm.46-52.88v51.67l8.95-4.52V155.88Z" fill="#d1d3d4"/><polygon points="196.9 169.9 187.03 174.88 196.9 179.86 206.78 174.88 196.9 169.9" fill="#fff"/><path d="M196.9,180.32a.35.35,0,0,1-.2,0l-9.88-5a.46.46,0,0,1-.25-.41.47.47,0,0,1,.25-.41l9.88-5a.43.43,0,0,1,.41,0l9.88,5a.47.47,0,0,1,.25.41.46.46,0,0,1-.25.41l-9.88,5A.36.36,0,0,1,196.9,180.32Zm-8.85-5.44,8.85,4.47,8.86-4.47-8.86-4.46Z" fill="#d1d3d4"/><polygon points="187.03 174.88 187.03 207.83 196.9 212.81 196.9 179.86 187.03 174.88" fill="#fff"/><path d="M196.9,213.27a.46.46,0,0,1-.2-.05l-9.88-5a.47.47,0,0,1-.25-.41v-33a.44.44,0,0,1,.22-.39.45.45,0,0,1,.45,0l9.87,5a.46.46,0,0,1,.26.41v32.95a.47.47,0,0,1-.22.39A.45.45,0,0,1,196.9,213.27Zm-9.41-5.73,8.95,4.52V180.15l-8.95-4.52Z" fill="#d1d3d4"/><polygon points="196.9 212.81 206.78 207.83 206.78 174.88 196.9 179.86 196.9 212.81" fill="#fff"/><path d="M196.9,213.27a.44.44,0,0,1-.24-.07.47.47,0,0,1-.22-.39V179.86a.46.46,0,0,1,.26-.41l9.87-5a.45.45,0,0,1,.45,0,.44.44,0,0,1,.22.39v33a.47.47,0,0,1-.25.41l-9.88,5A.46.46,0,0,1,196.9,213.27Zm.47-33.12v31.91l8.95-4.52V175.63Z" fill="#d1d3d4"/><polygon points="231.74 181.15 221.87 186.13 231.74 191.12 241.62 186.13 231.74 181.15" fill="#fff"/><path d="M231.74,191.58a.46.46,0,0,1-.2-.05l-9.88-5a.47.47,0,0,1,0-.83l9.88-5a.49.49,0,0,1,.41,0l9.88,5a.47.47,0,0,1,0,.83l-9.88,5A.5.5,0,0,1,231.74,191.58Zm-8.85-5.44,8.85,4.46,8.86-4.46-8.86-4.47Z" fill="#d1d3d4"/><polygon points="221.87 186.13 221.87 207.83 231.74 212.81 231.74 191.12 221.87 186.13" fill="#fff"/><path d="M231.74,213.27a.46.46,0,0,1-.2-.05l-9.88-5a.47.47,0,0,1-.25-.41V186.14a.46.46,0,0,1,.67-.42l9.87,5a.43.43,0,0,1,.25.41v21.69a.44.44,0,0,1-.22.39A.4.4,0,0,1,231.74,213.27Zm-9.41-5.73,8.95,4.52V191.4l-8.95-4.52Z" fill="#d1d3d4"/><polygon points="231.74 212.81 241.62 207.83 241.62 186.13 231.74 191.12 231.74 212.81" fill="#fff"/><path d="M231.74,213.27a.44.44,0,0,1-.24-.07.47.47,0,0,1-.22-.39V191.12a.44.44,0,0,1,.26-.41l9.87-5a.48.48,0,0,1,.45,0,.47.47,0,0,1,.22.4v21.69a.47.47,0,0,1-.25.41l-9.88,5A.54.54,0,0,1,231.74,213.27Zm.46-21.87v20.66l9-4.52V186.88Z" fill="#d1d3d4"/><path d="M255.31,150.61H221.87a.46.46,0,0,1-.46-.46.45.45,0,0,1,.46-.46h33.44a.46.46,0,0,1,.46.46A.47.47,0,0,1,255.31,150.61Z" fill="#2e8555" class="target-color"/><path d="M255.31,157.42H221.87a.46.46,0,0,1,0-.92h33.44a.46.46,0,1,1,0,.92Z" fill="#2e8555" class="target-color"/><path d="M255.31,164.23H221.87a.45.45,0,0,1-.46-.46.46.46,0,0,1,.46-.46h33.44a.47.47,0,0,1,.46.46A.46.46,0,0,1,255.31,164.23Z" fill="#2e8555" class="target-color"/><path d="M246.88,171.05h-25a.46.46,0,0,1-.46-.46.45.45,0,0,1,.46-.46h25a.46.46,0,0,1,.46.46A.47.47,0,0,1,246.88,171.05Z" fill="#2e8555" class="target-color"/><path d="M295,226.21H105a.52.52,0,0,1,0-1H295a.52.52,0,0,1,0,1Z" fill="#231f20"/><path d="M303.92,101.76H285.53a.47.47,0,0,1,0-.93h18.39a8.31,8.31,0,0,0,8.31-8.3V82.39a.46.46,0,0,1,.46-.47.47.47,0,0,1,.46.47V92.53A9.24,9.24,0,0,1,303.92,101.76Z" fill="#d1d3d4"/><path d="M336.59,147.26a.47.47,0,0,1-.46-.46V117.17a15.43,15.43,0,0,0-15.42-15.41H291.19a.47.47,0,0,1,0-.93h29.52a16.36,16.36,0,0,1,16.34,16.34V146.8A.47.47,0,0,1,336.59,147.26Z" fill="#d1d3d4"/><polygon points="333.95 85.63 305.35 85.63 305.35 46.15 340.35 46.15 340.35 77.9 333.95 85.63" fill="#fff"/><path d="M334,86.14h-28.6a.51.51,0,0,1-.51-.52V46.15a.51.51,0,0,1,.51-.51h35a.51.51,0,0,1,.52.51V77.9a.52.52,0,0,1-.12.33L334.35,86A.51.51,0,0,1,334,86.14Zm-28.08-1h27.84l6.13-7.4v-31h-34Z" fill="#231f20"/><polyline points="333.95 85.63 333.95 77.49 340.35 77.49" fill="#231f20"/><path d="M334,86.14a.51.51,0,0,1-.51-.52V77.49A.51.51,0,0,1,334,77h6.4a.52.52,0,1,1,0,1h-5.88v7.61A.52.52,0,0,1,334,86.14Z" fill="#231f20"/><path d="M335.06,54.59H310.65a.46.46,0,0,1,0-.92h24.41a.46.46,0,1,1,0,.92Z" fill="#d1d3d4"/><path d="M335.06,60.54H310.65a.46.46,0,0,1,0-.92h24.41a.46.46,0,1,1,0,.92Z" fill="#d1d3d4"/><path d="M335.06,66.49H310.65a.45.45,0,0,1-.46-.46.46.46,0,0,1,.46-.46h24.41a.47.47,0,0,1,.46.46A.46.46,0,0,1,335.06,66.49Z" fill="#d1d3d4"/><path d="M335.06,72.44H310.65a.45.45,0,0,1-.46-.46.46.46,0,0,1,.46-.46h24.41a.47.47,0,0,1,.46.46A.46.46,0,0,1,335.06,72.44Z" fill="#d1d3d4"/><path d="M285.53,103.33c-.11.52-.21,1-.34,1.55a10.46,10.46,0,0,1-10,7.88q-18.66,0-37.31,0A11.3,11.3,0,0,1,233.64,91a.79.79,0,0,0,.59-.75,8,8,0,0,1,12.23-6l.44.27a15.61,15.61,0,0,1,9.89-8.31,14.87,14.87,0,0,1,9.32.41A15.47,15.47,0,0,1,276.23,92c.47.1.95.16,1.41.3,4.32,1.29,7,4.07,7.79,8.59a2.07,2.07,0,0,0,.1.33Z" fill="#fff"/><path d="M255.63,113.29c-6.15,0-12,0-17.79,0a11.93,11.93,0,0,1-11.54-9.53,11.77,11.77,0,0,1,7.15-13.23c.24-.1.25-.14.27-.32a8.78,8.78,0,0,1,4.91-6.92,8.18,8.18,0,0,1,8.07.52,16.09,16.09,0,0,1,9.95-8.08,15.47,15.47,0,0,1,9.64.42,16,16,0,0,1,10.48,15.44,9.35,9.35,0,0,1,1,.23c4.62,1.38,7.36,4.4,8.15,9a.33.33,0,0,0,0,.14l0,.13a.39.39,0,0,1,0,.15v2.12a.37.37,0,0,1,0,.11l-.1.48c-.07.36-.15.73-.24,1.09a10.93,10.93,0,0,1-10.54,8.26ZM242.2,83.48a7.19,7.19,0,0,0-3.12.72,7.72,7.72,0,0,0-4.33,6.1,1.32,1.32,0,0,1-.91,1.17,10.73,10.73,0,0,0-6.52,12.07,10.87,10.87,0,0,0,10.52,8.7c11.56,0,23.77,0,37.31,0a9.91,9.91,0,0,0,9.54-7.49c.09-.34.16-.69.23-1l.09-.43v-2a1.57,1.57,0,0,1-.09-.34c-.73-4.22-3.16-6.9-7.43-8.18a9.18,9.18,0,0,0-.91-.19l-.45-.09a.51.51,0,0,1-.41-.54,15,15,0,0,0-9.79-14.86,14.4,14.4,0,0,0-9-.4,15,15,0,0,0-9.57,8.06A.55.55,0,0,1,247,85a.58.58,0,0,1-.41-.06l-.45-.28A7.34,7.34,0,0,0,242.2,83.48Zm43.33,19.85h0Z" fill="#231f20"/><rect x="309.15" y="142.21" width="54.89" height="51.35" fill="#231f20"/><path d="M364,194.08H309.15a.53.53,0,0,1-.52-.52V142.21a.52.52,0,0,1,.52-.51H364a.51.51,0,0,1,.52.51v51.35A.52.52,0,0,1,364,194.08Zm-54.37-1h53.86V142.73H309.67Z" fill="#231f20"/><rect x="304.8" y="183.54" width="63.6" height="18.02" rx="4.37" fill="#fff"/><path d="M364,202.08H309.17a4.89,4.89,0,0,1-4.89-4.89v-9.28a4.9,4.9,0,0,1,4.89-4.89H364a4.9,4.9,0,0,1,4.89,4.89v9.28A4.9,4.9,0,0,1,364,202.08Zm-54.86-18a3.86,3.86,0,0,0-3.86,3.85v9.28a3.86,3.86,0,0,0,3.86,3.86H364a3.86,3.86,0,0,0,3.85-3.86v-9.28a3.86,3.86,0,0,0-3.85-3.85Z" fill="#231f20"/><rect x="304.8" y="161.58" width="63.6" height="18.02" rx="4.37" fill="#fff"/><path d="M364,180.12H309.17a4.9,4.9,0,0,1-4.89-4.89V166a4.89,4.89,0,0,1,4.89-4.89H364a4.9,4.9,0,0,1,4.89,4.89v9.28A4.9,4.9,0,0,1,364,180.12Zm-54.86-18a3.86,3.86,0,0,0-3.86,3.86v9.28a3.86,3.86,0,0,0,3.86,3.85H364a3.86,3.86,0,0,0,3.85-3.85V166a3.86,3.86,0,0,0-3.85-3.86Z" fill="#231f20"/><rect x="304.8" y="139.61" width="63.6" height="18.02" rx="4.37" fill="#fff"/><path d="M364,158.15H309.17a4.89,4.89,0,0,1-4.89-4.89V144a4.89,4.89,0,0,1,4.89-4.89H364a4.9,4.9,0,0,1,4.89,4.89v9.27A4.9,4.9,0,0,1,364,158.15Zm-54.86-18a3.86,3.86,0,0,0-3.86,3.86v9.27a3.86,3.86,0,0,0,3.86,3.86H364a3.86,3.86,0,0,0,3.85-3.86V144a3.86,3.86,0,0,0-3.85-3.86Z" fill="#231f20"/><circle cx="312.69" cy="145.9" r="1.2" fill="#fff"/><path d="M312.69,147.6a1.7,1.7,0,1,1,1.7-1.7A1.71,1.71,0,0,1,312.69,147.6Zm0-2.4a.7.7,0,1,0,0,1.4.7.7,0,1,0,0-1.4Z" fill="#d1d3d4"/><circle cx="317.77" cy="145.9" r="1.2" fill="#fff"/><path d="M317.77,147.6a1.7,1.7,0,1,1,1.7-1.7A1.7,1.7,0,0,1,317.77,147.6Zm0-2.4a.7.7,0,1,0,.7.7A.7.7,0,0,0,317.77,145.2Z" fill="#d1d3d4"/><circle cx="322.85" cy="145.9" r="1.2" fill="#fff"/><path d="M322.85,147.6a1.7,1.7,0,1,1,1.71-1.7A1.7,1.7,0,0,1,322.85,147.6Zm0-2.4a.7.7,0,0,0,0,1.4.7.7,0,1,0,0-1.4Z" fill="#d1d3d4"/><path d="M53.9,79.36c.38-1.13.76-2.25,1.16-3.38.2-.58.43-1.15.67-1.72a1.65,1.65,0,0,1,1.79-1.09c.91.1,1.81.29,2.72.44a9.12,9.12,0,0,0,1.46.19,1.63,1.63,0,0,0,1-.33c1-1,2.05-2,3-3.08A1.56,1.56,0,0,0,66.05,69c-.23-1.1-.49-2.2-.72-3.3a4.44,4.44,0,0,1-.12-1.3,1.25,1.25,0,0,1,.43-.84A20.13,20.13,0,0,1,71.08,61a1.37,1.37,0,0,1,1.56.56c.69.95,1.42,1.88,2.09,2.86a2.22,2.22,0,0,0,2.14,1.08c1.21-.09,2.42-.11,3.62-.16a1.37,1.37,0,0,0,1.09-.66c.43-.64.84-1.29,1.26-1.93s.72-1.11,1.1-1.64a1.39,1.39,0,0,1,1.67-.58c1.67.58,3.33,1.17,5,1.8a1.46,1.46,0,0,1,.9,1.62c-.09.92-.3,1.84-.44,2.76-.07.43-.14.86-.17,1.3a1.8,1.8,0,0,0,.55,1.53c.88.83,1.77,1.65,2.62,2.51a2,2,0,0,0,2,.56l3.57-.81a1.59,1.59,0,0,1,2,1q1,2.13,2,4.31a1.7,1.7,0,0,1-.62,2.38c-.61.48-1.27.9-1.9,1.37-.45.34-.9.69-1.32,1a1.55,1.55,0,0,0-.56,1.24c0,1.25,0,2.5.11,3.75a2,2,0,0,0,1,1.66l2,1.21a14.71,14.71,0,0,1,1.23.83,1.48,1.48,0,0,1,.56,1.79c-.55,1.51-1.12,3-1.69,4.51a3.21,3.21,0,0,1-.37.64,1.32,1.32,0,0,1-1.4.65l-3.25-.54-.24,0a2.34,2.34,0,0,0-2.48.87c-.61.73-1.31,1.38-2,2.06a2.34,2.34,0,0,0-.61,2.36c.27,1.05.53,2.1.74,3.16a1.56,1.56,0,0,1-1,2.1c-1.47.71-3,1.37-4.47,2a1.48,1.48,0,0,1-2-.51c-.58-.74-1.11-1.51-1.66-2.27-1.16-1.63-1.45-1.78-3.46-1.68l-2.34.14a2.15,2.15,0,0,0-1.84,1.07c-.48.79-.93,1.59-1.43,2.36a7.48,7.48,0,0,1-.9,1.12,1.11,1.11,0,0,1-1.24.32l-4.74-1.77a3,3,0,0,1-.6-.35,1.33,1.33,0,0,1-.67-1.4c.17-1.07.36-2.14.52-3.21,0-.32.08-.65.1-1a1.73,1.73,0,0,0-.54-1.45c-.86-.79-1.71-1.59-2.56-2.39a1.89,1.89,0,0,0-1.87-.45c-1,.26-2.11.49-3.17.73l-.12,0c-1.38.25-1.82.07-2.42-1.2S55.17,95.4,54.59,94a1.42,1.42,0,0,1,.57-2c.84-.64,1.7-1.26,2.58-1.83A2.54,2.54,0,0,0,59,87.65c-.08-1.12-.1-2.25-.16-3.37a1.44,1.44,0,0,0-.66-1.18c-.94-.6-1.88-1.18-2.81-1.79a3.08,3.08,0,0,1-1.48-1.54Zm35.78,6.28A10.66,10.66,0,0,0,78.93,75a10.84,10.84,0,0,0-10.52,10.7A10.69,10.69,0,0,0,79,96.29,10.55,10.55,0,0,0,89.68,85.64Z" fill="#231f20"/><path d="M72.92,111.29a1.49,1.49,0,0,1-.58-.11l-1.27-.47-3.47-1.3a3,3,0,0,1-.62-.34,1.9,1.9,0,0,1-1-2l.24-1.43c.09-.59.19-1.18.28-1.78a7.32,7.32,0,0,0,.09-.93,1.17,1.17,0,0,0-.37-1c-.79-.72-1.57-1.45-2.35-2.19l-.22-.2a1.36,1.36,0,0,0-1.39-.33c-.73.18-1.47.34-2.2.51L59,100c-1.64.3-2.31,0-3-1.49s-1.38-3.13-1.87-4.33a1.91,1.91,0,0,1,.74-2.58c1-.75,1.81-1.34,2.61-1.86a2,2,0,0,0,1-2c0-.7-.08-1.4-.11-2.1l-.06-1.28a.88.88,0,0,0-.42-.77l-1.17-.75-1.64-1a3.57,3.57,0,0,1-1.69-1.81.51.51,0,0,1,0-.17v-.41a.51.51,0,0,1,0-.17l.34-1c.27-.79.54-1.59.82-2.38.21-.59.44-1.17.68-1.75a2.19,2.19,0,0,1,2.32-1.41c.61.07,1.22.18,1.82.29l.93.16.36.06a5.42,5.42,0,0,0,1,.12,1.23,1.23,0,0,0,.67-.18c1.1-1,2.14-2.14,3-3.07a1,1,0,0,0,.18-1c-.1-.49-.22-1-.33-1.47s-.27-1.22-.39-1.83a4.88,4.88,0,0,1-.13-1.46,1.7,1.7,0,0,1,.66-1.21A20.45,20.45,0,0,1,71,60.53a1.86,1.86,0,0,1,2.1.76l.75,1c.46.62.92,1.23,1.35,1.87a1.72,1.72,0,0,0,1.69.86c.78-.06,1.57-.09,2.35-.12l1.28-.05a.83.83,0,0,0,.68-.43c.26-.37.5-.75.75-1.13l.68-1c.3-.47.61-1,.94-1.4a1.88,1.88,0,0,1,2.25-.76c2,.69,3.56,1.25,5,1.8A2,2,0,0,1,92,64c-.07.64-.18,1.26-.29,1.87-.06.31-.11.62-.16.93s-.14.84-.17,1.26a1.28,1.28,0,0,0,.4,1.12l.62.59c.68.63,1.36,1.27,2,1.93a1.44,1.44,0,0,0,1.48.41c.58-.12,1.16-.26,1.73-.39l1.84-.41a2.09,2.09,0,0,1,2.58,1.23c.68,1.42,1.34,2.88,2,4.32a2.2,2.2,0,0,1-.77,3c-.37.29-.75.56-1.14.83l-.77.55c-.45.33-.88.67-1.29,1a1,1,0,0,0-.38.84l0,.79c0,1,0,2,.09,2.94a1.42,1.42,0,0,0,.75,1.24c.28.18.57.35.87.52l1.18.7c.4.25.85.53,1.28.86a2,2,0,0,1,.72,2.38c-.55,1.5-1.11,3-1.69,4.51a3.16,3.16,0,0,1-.38.68,1.86,1.86,0,0,1-2,.94l-3.25-.54-.28,0a1.81,1.81,0,0,0-2,.7c-.44.52-.92,1-1.39,1.47l-.59.61a1.86,1.86,0,0,0-.48,1.87c.3,1.18.54,2.17.75,3.19a2.07,2.07,0,0,1-1.3,2.67c-1.35.65-2.81,1.31-4.48,2A2,2,0,0,1,85,110c-.48-.61-.92-1.24-1.37-1.86l-.3-.43c-1.07-1.5-1.19-1.56-3-1.46l-1.32.07-1,.06a1.64,1.64,0,0,0-1.43.83l-.47.79c-.32.53-.63,1.06-1,1.58a8.41,8.41,0,0,1-1,1.2A1.7,1.7,0,0,1,72.92,111.29ZM62.73,98.11a2.34,2.34,0,0,1,1.65.67l.22.2c.77.73,1.55,1.46,2.34,2.18a2.21,2.21,0,0,1,.7,1.86,7.18,7.18,0,0,1-.1,1c-.09.6-.19,1.2-.29,1.79L67,107.26a.82.82,0,0,0,.44.89l.09.06a2.68,2.68,0,0,0,.41.24l3.46,1.29,1.28.47a.57.57,0,0,0,.69-.19,8.33,8.33,0,0,0,.84-1c.32-.51.63-1,.94-1.54l.48-.81a2.65,2.65,0,0,1,2.25-1.32l1-.06,1.33-.07c2.16-.11,2.64.12,3.9,1.9l.31.42c.43.61.87,1.23,1.33,1.81a1,1,0,0,0,1.37.37c1.66-.71,3.11-1.36,4.44-2,.8-.39.92-.63.74-1.53s-.44-2-.74-3.15a2.86,2.86,0,0,1,.73-2.83l.61-.62c.45-.46.92-.93,1.33-1.42a2.86,2.86,0,0,1,3-1l.1,0h.11l3.25.55a.82.82,0,0,0,.88-.44,2.85,2.85,0,0,0,.32-.54q.85-2.23,1.68-4.5a1,1,0,0,0-.38-1.2c-.39-.3-.82-.57-1.19-.8l-1.17-.69L100,89a2.51,2.51,0,0,1-1.25-2.08c0-1-.06-2-.08-3l0-.79a2.05,2.05,0,0,1,.73-1.64c.44-.37.89-.73,1.35-1.07.26-.2.53-.39.8-.57s.74-.52,1.09-.8a1.21,1.21,0,0,0,.46-1.77c-.62-1.43-1.28-2.87-2-4.29a1.09,1.09,0,0,0-1.42-.67l-1.82.42-1.75.39a2.49,2.49,0,0,1-2.44-.7c-.64-.65-1.31-1.27-2-1.9L91.08,70a2.32,2.32,0,0,1-.72-2q.06-.68.18-1.35c0-.31.11-.63.16-1,.12-.61.22-1.19.28-1.77a1,1,0,0,0-.57-1.08c-1.43-.55-3-1.11-5-1.8a.88.88,0,0,0-1.08.39c-.32.44-.62.9-.92,1.36l-.68,1c-.24.39-.49.78-.75,1.16a1.87,1.87,0,0,1-1.49.88l-1.29.05c-.77,0-1.55.06-2.32.12a2.72,2.72,0,0,1-2.61-1.31c-.42-.62-.88-1.23-1.33-1.83l-.75-1a.87.87,0,0,0-1-.36A19.21,19.21,0,0,0,65.91,64a.82.82,0,0,0-.19.45,4.09,4.09,0,0,0,.12,1.15c.12.6.26,1.2.39,1.8s.23,1,.33,1.49a2,2,0,0,1-.44,1.9c-.88.94-1.93,2-3.05,3.1a2.14,2.14,0,0,1-1.36.47,5.83,5.83,0,0,1-1.21-.13l-.35-.06L59.21,74c-.58-.1-1.16-.21-1.75-.27a1.14,1.14,0,0,0-1.25.78c-.24.56-.47,1.12-.67,1.7-.28.78-.54,1.57-.81,2.36l-.32.93v.23a2.78,2.78,0,0,0,1.23,1.19l1.65,1,1.18.75a1.9,1.9,0,0,1,.89,1.58l.06,1.3c0,.69.06,1.38.11,2.07a3.08,3.08,0,0,1-1.51,3c-.78.5-1.59,1.08-2.55,1.81-.6.45-.67.71-.41,1.37.49,1.19,1.13,2.76,1.85,4.28.49,1,.69,1.13,1.87.91l.22.48-.12-.5,1-.22L62,98.19A3.4,3.4,0,0,1,62.73,98.11ZM79,96.8h0A11.16,11.16,0,0,1,67.89,85.65a11,11,0,0,1,3.3-7.87,11.24,11.24,0,0,1,7.7-3.35h0A11.15,11.15,0,0,1,90.2,85.63a10.61,10.61,0,0,1-3,7.67A11.13,11.13,0,0,1,79,96.8Zm-.14-21.34a10.19,10.19,0,0,0-7,3.05,10,10,0,0,0-3,7.14A10.12,10.12,0,0,0,79,95.77h0a10.09,10.09,0,0,0,7.43-3.17,9.57,9.57,0,0,0,2.72-6.93v0A10.13,10.13,0,0,0,78.92,75.47Z" fill="#231f20"/></g></svg>