<svg xmlns="http://www.w3.org/2000/svg" viewBox="0 0 400 300" data-imageid="digital-content-4" imageName="Coding" class="illustrations_image" style="width: 261px;"><g id="_87_coding_outline" data-name="#87_coding_outline"><path d="M289.32,90.26V223.54a3.65,3.65,0,0,1-3.65,3.65H130.85a3.65,3.65,0,0,1-3.65-3.65V90.26a3.65,3.65,0,0,1,3.65-3.66H285.67A3.65,3.65,0,0,1,289.32,90.26Z" fill="#2e8555" class="target-color"/><path d="M285.67,228.19H130.85a4.66,4.66,0,0,1-4.65-4.65V90.26a4.66,4.66,0,0,1,4.65-4.66H285.67a4.66,4.66,0,0,1,4.65,4.66V223.54A4.65,4.65,0,0,1,285.67,228.19ZM130.85,87.6a2.66,2.66,0,0,0-2.65,2.66V223.54a2.65,2.65,0,0,0,2.65,2.65H285.67a2.65,2.65,0,0,0,2.65-2.65V90.26a2.66,2.66,0,0,0-2.65-2.66Z" fill="#093f68"/><path d="M272.8,76.47V209.75a3.65,3.65,0,0,1-3.65,3.65H114.33a3.65,3.65,0,0,1-3.65-3.65V76.47a3.65,3.65,0,0,1,3.65-3.66H269.15A3.65,3.65,0,0,1,272.8,76.47Z" fill="#fff"/><path d="M269.15,214.4H114.33a4.65,4.65,0,0,1-4.65-4.65V76.47a4.66,4.66,0,0,1,4.65-4.66H269.15a4.66,4.66,0,0,1,4.65,4.66V209.75A4.65,4.65,0,0,1,269.15,214.4ZM114.33,73.81a2.66,2.66,0,0,0-2.65,2.66V209.75a2.65,2.65,0,0,0,2.65,2.65H269.15a2.65,2.65,0,0,0,2.65-2.65V76.47a2.66,2.66,0,0,0-2.65-2.66Z" fill="#093f68"/><path d="M272.8,76.47V209.75a3.65,3.65,0,0,1-3.65,3.65h-103V72.81h103A3.65,3.65,0,0,1,272.8,76.47Z" fill="#093f68"/><path d="M269.15,214.4h-103a1,1,0,0,1-1-1V72.81a1,1,0,0,1,1-1h103a4.66,4.66,0,0,1,4.65,4.66V209.75A4.65,4.65,0,0,1,269.15,214.4Zm-102-2h102a2.65,2.65,0,0,0,2.65-2.65V76.47a2.66,2.66,0,0,0-2.65-2.66h-102Z" fill="#093f68"/><path d="M272.8,76.47v15H110.68v-15a3.65,3.65,0,0,1,3.65-3.66H269.15A3.65,3.65,0,0,1,272.8,76.47Z" fill="#fff"/><path d="M272.8,92.48H110.68a1,1,0,0,1-1-1v-15a4.66,4.66,0,0,1,4.65-4.66H269.15a4.66,4.66,0,0,1,4.65,4.66v15A1,1,0,0,1,272.8,92.48Zm-161.12-2H271.8v-14a2.66,2.66,0,0,0-2.65-2.66H114.33a2.66,2.66,0,0,0-2.65,2.66Z" fill="#093f68"/><circle cx="123.19" cy="81.63" r="3.38" fill="#f56132"/><path d="M123.19,86a4.38,4.38,0,1,1,4.38-4.38A4.39,4.39,0,0,1,123.19,86Zm0-6.76a2.38,2.38,0,1,0,2.38,2.38A2.39,2.39,0,0,0,123.19,79.25Z" fill="#093f68"/><circle cx="136.84" cy="81.63" r="3.38" fill="#ffbc0e"/><path d="M136.84,86a4.38,4.38,0,1,1,4.37-4.38A4.39,4.39,0,0,1,136.84,86Zm0-6.76a2.38,2.38,0,1,0,2.37,2.38A2.38,2.38,0,0,0,136.84,79.25Z" fill="#093f68"/><circle cx="150.48" cy="81.63" r="3.38" fill="#70cc40"/><path d="M150.48,86a4.38,4.38,0,1,1,4.38-4.38A4.39,4.39,0,0,1,150.48,86Zm0-6.76a2.38,2.38,0,1,0,2.38,2.38A2.39,2.39,0,0,0,150.48,79.25Z" fill="#093f68"/><path d="M148.3,104.19H120.73a1,1,0,0,1,0-2H148.3a1,1,0,0,1,0,2Z" fill="#dfeaef"/><path d="M153,116.59H129.79a1,1,0,0,1,0-2H153a1,1,0,0,1,0,2Z" fill="#dfeaef"/><path d="M156.18,129h-19.3a1,1,0,0,1,0-2h19.3a1,1,0,0,1,0,2Z" fill="#dfeaef"/><path d="M149.88,141.41H125.46a1,1,0,0,1,0-2h24.42a1,1,0,0,1,0,2Z" fill="#dfeaef"/><path d="M143.31,153.81H120.73a1,1,0,0,1,0-2h22.58a1,1,0,0,1,0,2Z" fill="#dfeaef"/><path d="M148.3,166.22h-20a1,1,0,0,1,0-2h20a1,1,0,0,1,0,2Z" fill="#dfeaef"/><path d="M141.41,178.62H120.73a1,1,0,0,1,0-2h20.68a1,1,0,0,1,0,2Z" fill="#dfeaef"/><path d="M148.3,191h-20a1,1,0,0,1,0-2h20a1,1,0,0,1,0,2Z" fill="#dfeaef"/><path d="M193.62,104.19h-16.8a1,1,0,0,1,0-2h16.8a1,1,0,0,1,0,2Z" fill="#fff"/><path d="M216.82,116.59H182.34a1,1,0,0,1,0-2h34.48a1,1,0,0,1,0,2Z" fill="#ffbc0e"/><path d="M208.26,129H182.34a1,1,0,0,1,0-2h25.92a1,1,0,0,1,0,2Z" fill="#ffbc0e"/><path d="M194.58,141.41H179.7a1,1,0,0,1,0-2h14.88a1,1,0,0,1,0,2Z" fill="#fff"/><path d="M200.5,153.81H183.7a1,1,0,0,1,0-2h16.8a1,1,0,0,1,0,2Z" fill="#f56132"/><path d="M209.06,166.22H183.12a1,1,0,0,1,0-2h25.94a1,1,0,0,1,0,2Z" fill="#fff"/><path d="M189.42,178.62h-12.6a1,1,0,0,1,0-2h12.6a1,1,0,0,1,0,2Z" fill="#fff"/><path d="M209.06,191h-27.6a1,1,0,0,1,0-2h27.6a1,1,0,0,1,0,2Z" fill="#70cc40"/><path d="M235.5,191H217.38a1,1,0,0,1,0-2H235.5a1,1,0,0,1,0,2Z" fill="#ffbc0e"/><path d="M229.62,129h-12.8a1,1,0,0,1,0-2h12.8a1,1,0,0,1,0,2Z" fill="#fff"/><path d="M247.87,116.59H223.22a1,1,0,0,1,0-2h24.65a1,1,0,0,1,0,2Z" fill="#2e8555" class="target-color"/><path d="M243.79,129h-7.21a1,1,0,0,1,0-2h7.21a1,1,0,0,1,0,2Z" fill="#f56132"/><path d="M212.66,153.81h-7.2a1,1,0,1,1,0-2h7.2a1,1,0,1,1,0,2Z" fill="#f56132"/><path d="M247.87,153.81H218.58a1,1,0,1,1,0-2h29.29a1,1,0,0,1,0,2Z" fill="#ffbc0e"/><path d="M223.22,166.22h-6.4a1,1,0,0,1,0-2h6.4a1,1,0,0,1,0,2Z" fill="#2e8555" class="target-color"/><path d="M247.87,191h-4.08a1,1,0,0,1,0-2h4.08a1,1,0,0,1,0,2Z" fill="#fff"/></g></svg>