<svg xmlns="http://www.w3.org/2000/svg" viewBox="0 0 400 300" data-imageid="html-d" imageName="Javascript" class="illustrations_image" style="width: 261px;"><g id="_181_javascript_outline" data-name="#181_javascript_outline"><rect x="144.72" y="69.25" width="130.1" height="153.64" rx="10.96" fill="#2e8555" class="target-color"/><path d="M263.86,223.89H155.67a12,12,0,0,1-11.95-11.95V80.21a12,12,0,0,1,11.95-12H263.86a12,12,0,0,1,12,12V211.94A12,12,0,0,1,263.86,223.89ZM155.67,70.25a10,10,0,0,0-9.95,10V211.94a10,10,0,0,0,9.95,9.95H263.86a10,10,0,0,0,10-9.95V80.21a10,10,0,0,0-10-10Z" fill="#093f68"/><path d="M257.86,230.75H141.93a7.08,7.08,0,0,1-7.08-7.08V84.75a7.08,7.08,0,0,1,7.08-7.08h93.81l29.2,27.19V223.67A7.08,7.08,0,0,1,257.86,230.75Z" fill="#fff"/><path d="M257.86,231.75H141.93a8.09,8.09,0,0,1-8.08-8.08V84.75a8.09,8.09,0,0,1,8.08-8.08h93.81a1,1,0,0,1,.68.27l29.21,27.19a1,1,0,0,1,.31.73V223.67A8.09,8.09,0,0,1,257.86,231.75ZM141.93,78.67a6.09,6.09,0,0,0-6.08,6.08V223.67a6.09,6.09,0,0,0,6.08,6.08H257.86a6.08,6.08,0,0,0,6.08-6.08V105.3l-28.6-26.63Z" fill="#093f68"/><path d="M235.74,77.67V99.06a5.46,5.46,0,0,0,5.39,5.47l23.81.33Z" fill="#2e8555" class="target-color"/><path d="M264.94,105.86h0l-23.81-.33a6.49,6.49,0,0,1-6.38-6.47V77.67a1,1,0,0,1,1.68-.73l29.21,27.19a1,1,0,0,1,.24,1.1A1,1,0,0,1,264.94,105.86ZM236.74,80V99.06a4.47,4.47,0,0,0,4.4,4.47l21.22.29Z" fill="#093f68"/><path d="M182.76,164.08,164,172.64v.14l18.78,8.56v9.39l-30-13.67v-8.7l30-13.68Z" fill="#093f68"/><path d="M182.76,191.73a.85.85,0,0,1-.41-.09l-30-13.67a1,1,0,0,1-.58-.91v-8.7a1,1,0,0,1,.58-.91l30-13.68a1,1,0,0,1,1.41.91v9.4a1,1,0,0,1-.58.91l-17,7.72,17,7.72a1,1,0,0,1,.58.91v9.39a1,1,0,0,1-.46.85A1,1,0,0,1,182.76,191.73Zm-29-15.31,28,12.76V182l-18.2-8.29a1,1,0,0,1-.58-.91v-.14a1,1,0,0,1,.58-.91l18.2-8.3v-7.19l-28,12.76Zm29-12.34h0Z" fill="#093f68"/><path d="M205,141.08l6.76,2.41L194,197.3l-6.7-2.42Z" fill="#093f68"/><path d="M194,198.3a1,1,0,0,1-.34-.06l-6.7-2.42a1,1,0,0,1-.61-1.25l17.72-53.81a1,1,0,0,1,.51-.58,1,1,0,0,1,.78,0l6.75,2.41a1,1,0,0,1,.62,1.26L195,197.61a1,1,0,0,1-.51.59A1.13,1.13,0,0,1,194,198.3Zm-5.44-4,4.81,1.74,17.15-51.9-4.87-1.75Z" fill="#093f68"/><path d="M216.36,181.34l18.78-8.56v-.14l-18.78-8.56v-9.4l30,13.68v8.7l-30,13.67Z" fill="#093f68"/><path d="M216.36,191.73a1,1,0,0,1-.54-.15,1,1,0,0,1-.46-.85v-9.39a1,1,0,0,1,.58-.91l16.94-7.72L215.94,165a1,1,0,0,1-.58-.91v-9.4a1,1,0,0,1,1.41-.91l30,13.68a1,1,0,0,1,.58.91v8.7a1,1,0,0,1-.58.91l-30,13.67A.85.85,0,0,1,216.36,191.73Zm1-9.75v7.2l28-12.76V169l-28-12.76v7.19l18.2,8.3a1,1,0,0,1,.58.91v.14a1,1,0,0,1-.58.91Z" fill="#093f68"/><rect x="120.98" y="92.53" width="71.35" height="44.25" rx="2.13" fill="#2e8555" class="target-color"/><path d="M190.2,137.78H123.11a3.13,3.13,0,0,1-3.13-3.12v-40a3.14,3.14,0,0,1,3.13-3.13H190.2a3.13,3.13,0,0,1,3.13,3.13v40A3.13,3.13,0,0,1,190.2,137.78ZM123.11,93.53A1.14,1.14,0,0,0,122,94.66v40a1.13,1.13,0,0,0,1.13,1.12H190.2a1.12,1.12,0,0,0,1.13-1.12v-40a1.13,1.13,0,0,0-1.13-1.13Z" fill="#093f68"/><path d="M151.53,122.88a7.29,7.29,0,0,1-1.07,2.59,6,6,0,0,1-2.18,2,7.46,7.46,0,0,1-3.61.77,7.3,7.3,0,0,1-4.6-1.43,6.78,6.78,0,0,1-2.46-3.67l4.64-1.56a2.7,2.7,0,0,0,.78,1.38,2,2,0,0,0,1.4.52,1.69,1.69,0,0,0,1.7-.89,5.49,5.49,0,0,0,.42-2.33V105.87h5.28v14.3A13.07,13.07,0,0,1,151.53,122.88Z" fill="#093f68"/><path d="M167.67,111.52a4.69,4.69,0,0,0-1.77-1.37,5,5,0,0,0-2.1-.51,6.44,6.44,0,0,0-1.06.1,2.81,2.81,0,0,0-1,.35,2.31,2.31,0,0,0-.72.67,1.84,1.84,0,0,0-.29,1.06,1.78,1.78,0,0,0,.23.93,2.06,2.06,0,0,0,.67.64,7,7,0,0,0,1.06.51c.41.15.87.31,1.39.47.73.25,1.5.52,2.3.82a8.49,8.49,0,0,1,2.18,1.18,6.3,6.3,0,0,1,1.62,1.82,5.29,5.29,0,0,1,.65,2.72,7.1,7.1,0,0,1-.69,3.24,6.51,6.51,0,0,1-1.86,2.26,8.14,8.14,0,0,1-2.67,1.32,11.49,11.49,0,0,1-3.1.43,12.59,12.59,0,0,1-4.51-.82A9.59,9.59,0,0,1,154.4,125l3.44-3.5a6.32,6.32,0,0,0,2.11,1.64,5.66,5.66,0,0,0,2.59.66,5.38,5.38,0,0,0,1.14-.12,3.08,3.08,0,0,0,1-.4,2,2,0,0,0,.66-.74,2.28,2.28,0,0,0,.25-1.11,1.71,1.71,0,0,0-.31-1,2.9,2.9,0,0,0-.87-.78A7,7,0,0,0,163,119l-1.92-.63a19.51,19.51,0,0,1-2-.79,7,7,0,0,1-1.78-1.19,5.49,5.49,0,0,1-1.26-1.75,6,6,0,0,1-.47-2.5,6.16,6.16,0,0,1,.73-3.1,6.57,6.57,0,0,1,1.94-2.12,8.49,8.49,0,0,1,2.7-1.21,12.06,12.06,0,0,1,3-.38,11.27,11.27,0,0,1,3.76.67,9.66,9.66,0,0,1,3.36,2Z" fill="#093f68"/><path d="M191.53,101.63H121a1,1,0,0,1,0-2h70.55a1,1,0,0,1,0,2Z" fill="#093f68"/><path d="M131.06,98.11h-5.12a1,1,0,0,1,0-2h5.12a1,1,0,0,1,0,2Z" fill="#093f68"/><path d="M257.68,212.94h-113a1,1,0,1,1,0-2h113a1,1,0,0,1,0,2Z" fill="#dfeaef"/></g></svg>